<?xml version="1.0" encoding="UTF-8" standalone="no" ?>
<!DOCTYPE svg PUBLIC "-//W3C//DTD SVG 1.1//EN" "http://www.w3.org/Graphics/SVG/1.1/DTD/svg11.dtd">
<svg xmlns="http://www.w3.org/2000/svg" xmlns:xlink="http://www.w3.org/1999/xlink" version="1.1" width="186" height="186" viewBox="0 0 186 186" xml:space="preserve">
<desc>Created with Fabric.js 4.6.0</desc>
<defs>
</defs>
<g transform="matrix(1.17 0 0 1.17 93.01 93.01)" id="WZ8F9NkA8kyV7YhimylFX"  >
<path style="stroke: rgb(42,122,20); stroke-width: 0; stroke-dasharray: none; stroke-linecap: butt; stroke-dashoffset: 0; stroke-linejoin: miter; stroke-miterlimit: 4; fill: rgb(255,255,255); fill-rule: nonzero; opacity: 1;" vector-effect="non-scaling-stroke"  transform=" translate(0, 0)" d="M 0 -79.71014 C 44 -79.71014 79.71014 -43.99999999999999 79.71014 0 C 79.71014 44 43.99999999999999 79.71014 0 79.71014 C -44 79.71014 -79.71014 43.99999999999999 -79.71014 0 C -79.71014 -44 -43.99999999999999 -79.71014 0 -79.71014 z" stroke-linecap="round" />
</g>
<g transform="matrix(1 0 0 1 93.01 93.01)" id="0385zPftxFCYWRXnslUff"  >
<g style="" vector-effect="non-scaling-stroke"   >
		<g transform="matrix(1.51 0 0 1.51 -0.56 0)" id="imNAFX6TixS3E_i0b_Yjh"  >
<path style="stroke: none; stroke-width: 1; stroke-dasharray: none; stroke-linecap: butt; stroke-dashoffset: 0; stroke-linejoin: miter; stroke-miterlimit: 4; fill: rgb(67,170,139); fill-rule: nonzero; opacity: 1;" vector-effect="non-scaling-stroke"  transform=" translate(-48, -48)" d="M 55.1714 12.1192 C 51.92927421372932 11.505350342846775 48.792472724735184 13.600108707275563 48.1172 16.83 L 36.1179 76.8262 C 35.80356121142064 78.38663408766381 36.123815534832424 80.00800545406615 37.0078369177661 81.33173866376694 C 37.89185830069977 82.65547187346773 39.26680507657803 83.57249384864352 40.8286 83.88 C 41.217940509826796 83.96018535330626 41.614594538706804 83.99946532980371 42.012100000000004 83.99719999999999 C 44.86929409268591 83.99273029705111 47.32627217376094 81.97247298651483 47.8828 79.17 L 59.8821 19.1735 C 60.19655906461545 17.61299434062315 59.87636427752654 15.991506769558224 58.99233407251285 14.667666517530265 C 58.10830386749915 13.343826265502305 56.73328698493071 12.426724734891494 55.1714 12.1192 Z" stroke-linecap="round" />
</g>
		<g transform="matrix(1.51 0 0 1.51 52.64 0)" id="4HY3HF1ARh8ruKJciQ2He"  >
<path style="stroke: none; stroke-width: 1; stroke-dasharray: none; stroke-linecap: butt; stroke-dashoffset: 0; stroke-linejoin: miter; stroke-miterlimit: 4; fill: rgb(67,170,139); fill-rule: nonzero; opacity: 1;" vector-effect="non-scaling-stroke"  transform=" translate(-82.49, -48)" d="M 94.6026 44.1563 L 79.6035 26.1574 C 78.23439038331594 24.498595078067368 76.08192893106224 23.699802502630334 73.96212586425398 24.063849023661646 C 71.84232279744572 24.427895544692955 70.07969303695452 25.899050264442778 69.3424594208341 27.919590169217415 C 68.60522580471368 29.94013007399205 69.00624943423578 32.20073617204991 70.39349999999999 33.84440000000001 L 82.1932 48 L 70.39320000000001 62.1554 C 69.0059494342357 63.799063827950086 68.60492580471352 66.059669926008 69.34215942083394 68.0802098307827 C 70.07939303695436 70.1007497355574 71.84202279744561 71.57190445530726 73.96182586425392 71.93595097633855 C 76.08162893106224 72.29999749736984 78.23409038331599 71.50120492193273 79.60320000000002 69.8424 L 94.6026 51.8433 C 96.46580260010228 49.619673957777756 96.46580260010228 46.379926042222245 94.6026 44.1563 Z" stroke-linecap="round" />
</g>
		<g transform="matrix(1.51 0 0 1.51 -52.64 0.03)" id="LJwFHSkYUkuW-kCQyxcLP"  >
<path style="stroke: none; stroke-width: 1; stroke-dasharray: none; stroke-linecap: butt; stroke-dashoffset: 0; stroke-linejoin: miter; stroke-miterlimit: 4; fill: rgb(67,170,139); fill-rule: nonzero; opacity: 1;" vector-effect="non-scaling-stroke"  transform=" translate(-13.51, -48.02)" d="M 24.8452 25.3957 C 22.29924336865085 23.281253614922367 18.52321719297186 23.62168458513254 16.396499999999996 26.157400000000003 L 1.3974 44.1563 C -0.46580260010228747 46.379926042222245 -0.46580260010228725 49.619673957777756 1.3974000000000009 51.8433 L 16.3965 69.8422 C 17.76560961668396 71.50100492193296 19.9180710689378 72.29979749737024 22.03787413574625 71.935750976339 C 24.1576772025547 71.57170445530774 25.920306963046073 70.10054973555778 26.657540579166472 68.08000983078294 C 27.39477419528687 66.0594699260081 26.993750565764536 63.798863827950065 25.6065 62.15520000000001 L 13.8068 48 L 25.6068 33.8446 C 27.72873236520082 31.300923008942686 27.387814107728737 27.51890585353845 24.8452 25.3957 Z" stroke-linecap="round" />
</g>
</g>
</g>
</svg>